<svg width="114" height="85" viewBox="0 0 114 85" fill="none" xmlns="http://www.w3.org/2000/svg">
<path d="M0.845825 72.4347H113.995" stroke="#AE7A2B" stroke-miterlimit="10"/>
<path d="M1.09611 66.5841C1.03698 66.5555 0.98489 66.5142 0.943554 66.463C0.902217 66.4118 0.872666 66.3522 0.857012 66.2882C0.82403 66.1619 0.82403 66.0292 0.857012 65.903C0.886168 65.7903 0.945827 65.6879 1.02938 65.6071C1.07039 65.5687 1.1213 65.5426 1.17633 65.5317C1.23137 65.5209 1.28833 65.5257 1.34076 65.5457C1.44425 65.5714 1.55238 65.5716 1.65597 65.5464C1.75956 65.5211 1.85553 65.4711 1.93572 65.4005C2.22455 65.186 2.486 64.9366 2.71419 64.658C3.16727 64.1551 3.57828 63.6154 3.94303 63.0446C4.36562 62.4082 4.78265 61.7216 5.19412 60.9902C5.34425 60.4599 5.55555 59.7788 5.81133 58.947C6.06711 58.1151 6.36737 57.2387 6.67319 56.3008C6.97901 55.3629 7.3182 54.4082 7.67407 53.4313C8.02993 52.4543 8.37468 51.5499 8.72498 50.7237C9.07076 49.8599 9.48156 49.0238 9.95383 48.2226C10.3597 47.5639 10.7212 47.2233 11.0659 47.201C11.1647 47.1826 11.2667 47.1959 11.3575 47.239C11.4484 47.2821 11.5234 47.3528 11.5719 47.4411C11.6684 47.6439 11.7232 47.8641 11.7332 48.0886C11.7484 48.3428 11.7201 48.5977 11.6498 48.8423C11.583 49.1103 11.533 49.2945 11.5052 49.4006V49.4341C11.2902 50.1784 10.9992 51.027 10.6322 51.9798C10.2652 52.9232 9.83706 53.9226 9.34775 54.9665C8.85843 56.0105 8.29683 57.1996 7.71855 58.3161C7.14027 59.4327 6.55643 60.4766 5.97258 61.4424C5.78909 62.09 5.60004 62.7823 5.41654 63.5136C5.23305 64.2449 5.044 64.9763 4.8605 65.7132C4.67701 66.4501 4.52132 67.187 4.36563 67.9072C4.20994 68.6273 4.08204 69.3196 3.97639 69.9895C3.83738 70.8213 3.74842 71.5638 3.70394 72.2226C3.65122 72.7713 3.66616 73.3244 3.74842 73.8695C3.76487 73.9887 3.80253 74.1041 3.85963 74.21C3.90967 74.277 3.98196 74.2435 4.09316 74.1039C4.36935 73.8297 4.61543 73.5265 4.82714 73.1995C5.0996 72.7976 5.38317 72.3621 5.62783 71.8988C5.87249 71.4354 6.12827 71 6.33956 70.598C6.55086 70.1961 6.71212 69.8946 6.82333 69.6936C6.84907 69.6567 6.8714 69.6174 6.89005 69.5764C6.92341 69.5206 7.00126 69.3531 7.12915 69.0907L7.75191 67.8458L8.95852 65.4619L10.9269 61.5541C11.5886 60.2645 12.2725 59.0084 12.9954 57.7858C13.3306 57.1724 13.702 56.5795 14.1075 56.0105C14.4794 55.447 14.9394 54.9475 15.4698 54.5311C15.7455 54.298 16.0997 54.1801 16.4595 54.2017C16.7653 54.2464 17.0545 54.5813 17.3325 55.2122C17.3881 55.3481 17.3881 55.5005 17.3325 55.6364C17.2873 55.7481 17.2073 55.8421 17.1045 55.9044C17.0605 55.9265 17.0119 55.938 16.9627 55.938C16.9135 55.938 16.865 55.9265 16.8209 55.9044C16.7642 55.8749 16.7148 55.833 16.6763 55.7818C16.6378 55.7306 16.6113 55.6714 16.5985 55.6085C16.5096 55.3908 16.4039 55.2791 16.2816 55.268C16.1382 55.2634 15.998 55.311 15.8868 55.402C15.6594 55.5918 15.4525 55.8051 15.2696 56.0384C15.0527 56.3008 14.8525 56.5967 14.6635 56.8479C14.4744 57.0991 14.2965 57.4061 14.1353 57.6629C13.974 57.9197 13.8461 58.1431 13.7572 58.2994C13.0158 59.5462 12.3226 60.7986 11.6776 62.0565C11.0325 63.3145 10.3875 64.5966 9.74254 65.903C9.29771 66.8111 8.84917 67.7099 8.39692 68.5994C7.94467 69.4889 7.48131 70.3766 7.00682 71.2624C6.82147 71.575 6.63613 71.9044 6.45078 72.2505C6.26729 72.5966 6.07823 72.9372 5.89474 73.2721C5.70543 73.5997 5.49556 73.9148 5.26641 74.2156C5.05751 74.5009 4.81477 74.7596 4.54356 74.986C4.34778 75.1764 4.09233 75.2928 3.8207 75.3154C3.59828 75.3154 3.40368 75.1479 3.23686 74.8129C2.99396 74.223 2.88749 73.5855 2.92548 72.9483C2.9417 72.0357 3.0216 71.1254 3.16458 70.224C3.32027 69.1968 3.51488 68.136 3.75398 67.0307C3.99308 65.9253 4.23773 64.8702 4.49907 63.8653L3.83182 64.8367C3.59646 65.1837 3.32832 65.5071 3.03112 65.8025C2.76694 66.067 2.46528 66.2909 2.1359 66.4668C1.982 66.5624 1.80892 66.6224 1.62912 66.6427C1.44932 66.663 1.26727 66.6429 1.09611 66.5841V66.5841ZM9.70361 50.6064C9.44227 51.1982 9.18094 51.829 8.92516 52.499C8.66938 53.1689 8.41916 53.8165 8.18562 54.4362C7.95209 55.0558 7.75747 55.6197 7.59066 56.111C7.42384 56.6022 7.29596 56.993 7.20143 57.2275C7.55173 56.5408 7.86312 55.9211 8.13002 55.3796C8.39691 54.8381 8.59153 54.4194 8.71386 54.1235C8.82229 53.9209 8.91884 53.7122 9.003 53.4983C9.14757 53.1633 9.31439 52.7669 9.509 52.3036C9.70362 51.8402 9.89266 51.3489 10.0928 50.8353C10.293 50.3217 10.4598 49.8416 10.5988 49.3894C10.7202 49.122 10.8008 48.8379 10.8379 48.5464C10.8379 48.4962 10.7378 48.5744 10.61 48.7809C10.4821 48.9875 10.3264 49.2666 10.1484 49.6127C9.97051 49.9589 9.84819 50.3106 9.72586 50.6064H9.70361Z" fill="#231F20"/>
<path d="M15.9868 66.2268C16.7829 65.7408 17.5057 65.1429 18.1331 64.4515L20.0014 62.3803C20.0414 62.3362 20.0924 62.3037 20.1491 62.286C20.2058 62.2684 20.2661 62.2662 20.3239 62.2798C20.4308 62.3067 20.5228 62.3749 20.5797 62.4696C20.641 62.5723 20.6718 62.6905 20.6687 62.8101C20.6693 62.8733 20.6573 62.936 20.6334 62.9945C20.6095 63.053 20.5743 63.1061 20.5297 63.1507C19.8902 63.882 19.2341 64.6022 18.5724 65.3112C17.9323 65.998 17.2028 66.5952 16.4039 67.0865C16.0062 67.388 15.5323 67.5717 15.036 67.6168C14.6134 67.6168 14.3076 67.3935 14.1074 66.8799C13.9704 66.4002 13.9704 65.8914 14.1074 65.4117C14.244 64.7583 14.4299 64.1163 14.6635 63.4912C14.9081 62.8325 15.1695 62.2128 15.4419 61.6434C15.7144 61.0739 15.9312 60.6441 16.0869 60.3705C16.1481 60.2309 16.2259 60.1584 16.326 60.1472C16.376 60.1425 16.4263 60.148 16.4741 60.1634C16.5219 60.1787 16.5661 60.2036 16.604 60.2365C16.6922 60.3086 16.7562 60.406 16.7875 60.5157C16.8291 60.6407 16.8291 60.7759 16.7875 60.9009C16.6763 61.1186 16.5206 61.4591 16.3149 61.8667C16.1092 62.2742 15.8979 62.7432 15.6866 63.2233C15.4753 63.7034 15.2807 64.1891 15.1305 64.658C14.9842 65.0439 14.8889 65.4475 14.847 65.8583C14.8247 66.1821 14.897 66.3942 15.0638 66.4947C15.2139 66.5952 15.5531 66.5059 15.9868 66.2268ZM17.655 59.0363C17.6204 59.0721 17.577 59.0982 17.5291 59.112C17.4813 59.1257 17.4307 59.1265 17.3825 59.1144C17.2968 59.087 17.2213 59.0345 17.1656 58.9637C17.1041 58.8819 17.064 58.7859 17.0489 58.6846C17.0266 58.5739 17.0382 58.4591 17.0822 58.3552C17.1662 58.1608 17.2666 57.974 17.3825 57.7969C17.4883 57.6381 17.5795 57.4699 17.655 57.2945C17.6863 57.2182 17.7406 57.1537 17.8102 57.1099C17.8798 57.0661 17.9613 57.0452 18.0434 57.0501C18.1254 57.0551 18.2038 57.0855 18.2677 57.1373C18.3317 57.1891 18.3779 57.2597 18.4 57.3391C18.4442 57.4483 18.4442 57.5705 18.4 57.6797C18.3849 57.7679 18.3548 57.8529 18.3111 57.9309C18.2499 58.0593 18.1776 58.1933 18.0942 58.344L17.8496 58.7571C17.7886 58.8553 17.7178 58.9469 17.6383 59.0307L17.655 59.0363Z" fill="#231F20"/>
<path d="M19.0395 65.0432C19.3781 63.7379 19.8226 62.4627 20.3685 61.2303C20.9245 59.9853 21.5584 58.6622 22.2757 57.261L21.7197 57.4117L21.2804 57.5122L20.8578 57.6183L20.3018 57.7634C20.254 57.787 20.2001 57.7954 20.1474 57.7874C20.0948 57.7794 20.0458 57.7555 20.0071 57.7188C19.9266 57.6458 19.8736 57.5472 19.8569 57.4396C19.8268 57.3187 19.8268 57.1921 19.8569 57.0712C19.8961 56.9412 19.9811 56.8301 20.096 56.7585C20.3129 56.6804 20.5131 56.619 20.7077 56.5687L21.3138 56.418L22.0144 56.2561L22.8985 56.0216C23.2933 55.268 23.7214 54.531 24.1829 53.7886C24.6333 53.0707 25.139 52.3894 25.6954 51.7509C25.9703 51.4488 26.2912 51.1926 26.6462 50.9916C26.7102 50.9488 26.7824 50.9198 26.8582 50.9065C26.934 50.8931 27.0117 50.8957 27.0865 50.9141C27.1612 50.9325 27.2313 50.9662 27.2924 51.0132C27.3535 51.0602 27.4042 51.1194 27.4413 51.187C27.5553 51.395 27.5833 51.6396 27.5192 51.8681C27.4564 52.2174 27.3595 52.5595 27.23 52.8897C27.0711 53.3089 26.8854 53.7173 26.674 54.1124C26.4349 54.5478 26.1902 54.9833 25.9289 55.4187C26.4069 55.3418 26.8928 55.3268 27.3746 55.374C27.7694 55.4243 28.0085 55.575 28.0863 55.8318C28.1508 56.0123 28.1508 56.2096 28.0863 56.3901C28.0648 56.4534 28.0298 56.5111 27.9837 56.5594C27.9376 56.6076 27.8815 56.6451 27.8194 56.6692C27.7653 56.6895 27.7071 56.6961 27.6498 56.6883C27.5926 56.6805 27.5381 56.6586 27.4914 56.6246C27.4303 56.5791 27.3815 56.519 27.3495 56.4498C27.3174 56.3806 27.3031 56.3044 27.3079 56.2282C27.0748 56.1649 26.8292 56.1649 26.5961 56.2282C26.2292 56.2784 25.7788 56.3622 25.2394 56.4794C24.5737 57.6149 23.8461 58.7127 23.0597 59.7676C22.2813 60.8134 21.4787 61.8685 20.6521 62.933C20.4241 63.5415 20.2072 64.1556 20.0071 64.7641C19.8256 65.3121 19.6807 65.8716 19.5733 66.4389C19.5165 66.7428 19.4849 67.0509 19.4788 67.36C19.4646 67.5563 19.5133 67.7519 19.6178 67.9183C19.7124 68.0356 19.8792 68.0579 20.1238 67.9797C20.4221 67.875 20.7076 67.7364 20.9746 67.5666C21.9771 66.9393 22.8979 66.1892 23.7158 65.3335C24.6044 64.4021 25.4363 63.4178 26.2069 62.3859C26.2787 62.3079 26.3748 62.2567 26.4794 62.2407C26.538 62.2332 26.5976 62.2429 26.6509 62.2686C26.7042 62.2944 26.7489 62.3351 26.7796 62.3859C26.8526 62.4959 26.8915 62.625 26.8915 62.7571C26.8915 62.8892 26.8526 63.0184 26.7796 63.1284C25.9956 64.1333 25.1727 65.1102 24.2997 66.0537C23.4188 67.0101 22.408 67.8371 21.2971 68.5101C21.0609 68.6579 20.8115 68.7831 20.552 68.8841C20.3327 68.9639 20.1051 69.0182 19.8736 69.046C19.7052 69.0698 19.5335 69.0464 19.3775 68.9785C19.2215 68.9105 19.0872 68.8006 18.9895 68.6608C18.8011 68.3468 18.6976 67.9889 18.6892 67.6224C18.669 67.1778 18.697 66.7323 18.7726 66.2938C18.8894 65.8136 18.9506 65.4005 19.0395 65.0432ZM23.9494 56.7976C23.8666 56.8389 23.7787 56.869 23.688 56.8869L23.4211 56.9483C23.1598 57.4005 22.9318 57.836 22.7317 58.2491C22.5315 58.6622 22.3647 59.0084 22.2312 59.2875C22.3202 59.1479 22.4147 59.0139 22.5037 58.8855C22.5926 58.7571 22.7094 58.6008 22.8373 58.411L23.2988 57.7467L23.9494 56.7976ZM24.7278 55.6141C25.4007 54.5534 25.9067 53.7383 26.2347 53.1745C26.4606 52.8159 26.6631 52.4429 26.8408 52.0579C26.5816 52.2248 26.3523 52.4343 26.1624 52.6776C25.8577 53.048 25.5719 53.4337 25.3061 53.8332C25.0893 54.1291 24.8891 54.4417 24.6945 54.7655C24.4999 55.0893 24.3108 55.4243 24.1106 55.7593L24.7278 55.6141Z" fill="#231F20"/>
<path d="M25.9455 62.5589C26.0512 62.4194 26.2124 62.2184 26.4293 61.9504C26.6461 61.6825 26.8352 61.4368 26.9853 61.1968C26.9167 60.9597 26.9167 60.708 26.9853 60.471C27.0577 60.1936 27.1741 59.9297 27.3301 59.6894C27.4589 59.4706 27.6312 59.2805 27.8361 59.1312C27.9113 59.0654 28.0042 59.0234 28.1032 59.0105C28.2021 58.9976 28.3026 59.0143 28.3921 59.0586C28.4609 59.0971 28.5208 59.1499 28.5678 59.2134C28.6148 59.2769 28.6478 59.3497 28.6646 59.427C28.7001 59.587 28.7001 59.7528 28.6646 59.9127C28.6221 60.1059 28.5567 60.2934 28.47 60.471C28.3754 60.6608 28.2865 60.8339 28.1919 60.9902C28.3818 61.1319 28.5266 61.3258 28.609 61.5485C28.6573 61.8255 28.5997 62.1106 28.4477 62.3468C28.3254 62.5813 28.1808 62.8604 28.0084 63.173C27.8361 63.4857 27.6804 63.815 27.5191 64.15C27.3573 64.4864 27.218 64.8333 27.1021 65.1884C26.995 65.5137 26.9296 65.8514 26.9075 66.1933C26.9075 66.4277 27.002 66.5506 27.1855 66.5506C27.5969 66.5231 27.9878 66.3603 28.2976 66.0872C28.7847 65.7323 29.2456 65.3423 29.6766 64.9204C30.1381 64.4682 30.5829 64.0048 31.0055 63.5303C31.4281 63.0558 31.7506 62.6706 31.9786 62.3747C32.0161 62.3362 32.0612 62.3059 32.1109 62.2857C32.1607 62.2656 32.2141 62.2559 32.2677 62.2575C32.3238 62.2566 32.3792 62.27 32.4287 62.2964C32.4783 62.3227 32.5205 62.3612 32.5513 62.4082C32.6327 62.5131 32.6741 62.6438 32.6681 62.7767C32.6741 62.9095 32.6327 63.0402 32.5513 63.1451C32.2788 63.4801 31.9174 63.9099 31.4392 64.4347C30.961 64.9595 30.5051 65.4619 29.9824 65.9588C29.501 66.4218 28.9716 66.8317 28.4032 67.1814C27.966 67.4852 27.4374 67.6273 26.9075 67.5834C26.7327 67.5441 26.5715 67.4588 26.4405 67.3361C26.3095 67.2134 26.2135 67.0579 26.1624 66.8855C26.0605 66.4951 26.0491 66.0864 26.129 65.6908C26.1922 65.3108 26.289 64.9371 26.4182 64.5743C26.5437 64.1949 26.6884 63.8223 26.8519 63.4577C26.9985 63.1321 27.1637 62.8152 27.3468 62.5087C27.4743 62.2906 27.6193 62.0834 27.7805 61.889L27.597 61.7997C27.3857 62.0937 27.1688 62.384 26.9464 62.6706C26.724 62.9553 26.5683 63.1507 26.4738 63.2288C26.4427 63.2726 26.4019 63.3085 26.3546 63.3337C26.3073 63.3589 26.2548 63.3727 26.2013 63.374C26.1454 63.3728 26.0905 63.3591 26.0405 63.334C25.9905 63.3089 25.9467 63.273 25.9122 63.2288C25.8229 63.1211 25.7772 62.9836 25.7843 62.8436C25.806 62.7338 25.8626 62.6339 25.9455 62.5589Z" fill="#231F20"/>
<path d="M32.7126 66.2268C33.5087 65.7408 34.2315 65.143 34.8589 64.4515L36.755 62.3803C36.7938 62.3363 36.8438 62.3036 36.8996 62.2859C36.9554 62.2682 37.015 62.2661 37.072 62.2798C37.1253 62.2923 37.1754 62.3155 37.2194 62.3481C37.2634 62.3808 37.3003 62.4221 37.3277 62.4696C37.389 62.5724 37.4198 62.6905 37.4167 62.8102C37.4173 62.8734 37.4053 62.9361 37.3814 62.9945C37.3575 63.053 37.3223 63.1061 37.2777 63.1507C36.6383 63.8821 35.9821 64.6022 35.3204 65.3112C34.6803 65.9981 33.9509 66.5952 33.1519 67.0865C32.7542 67.388 32.2804 67.5718 31.784 67.6169C31.367 67.6169 31.0556 67.3936 30.8555 66.88C30.7184 66.4002 30.7184 65.8915 30.8555 65.4117C30.9921 64.7583 31.1779 64.1163 31.4115 63.4913C31.6562 62.8325 31.9175 62.2128 32.19 61.6434C32.4624 61.074 32.6793 60.6441 32.835 60.3706C32.8961 60.231 32.974 60.1584 33.0741 60.1473C33.124 60.1426 33.1744 60.1481 33.2221 60.1634C33.2699 60.1788 33.3141 60.2037 33.3521 60.2366C33.4402 60.3086 33.5042 60.406 33.5356 60.5157C33.5771 60.6407 33.5771 60.7759 33.5356 60.9009C33.4244 61.1186 33.2687 61.4592 33.0629 61.8667C32.8572 62.2742 32.6459 62.7432 32.4346 63.2233C32.2233 63.7034 32.0287 64.1891 31.8786 64.658C31.7322 65.044 31.6369 65.4475 31.595 65.8583C31.5728 66.1821 31.645 66.3943 31.8119 66.4947C31.9397 66.5952 32.2344 66.5059 32.7126 66.2268ZM34.3807 59.0363C34.3461 59.0722 34.3027 59.0983 34.2549 59.112C34.2071 59.1257 34.1565 59.1266 34.1083 59.1145C34.0226 59.0871 33.9471 59.0346 33.8914 58.9637C33.8299 58.8819 33.7898 58.786 33.7747 58.6846C33.7523 58.5739 33.764 58.4591 33.808 58.3552C33.892 58.1608 33.9924 57.974 34.1083 57.797C34.2141 57.6381 34.3053 57.47 34.3807 57.2945C34.4045 57.2408 34.4397 57.1929 34.4839 57.1543C34.5281 57.1158 34.5802 57.0874 34.6365 57.0712C34.685 57.056 34.7361 57.0507 34.7867 57.0555C34.8373 57.0603 34.8864 57.0751 34.9312 57.0991C35.0267 57.1497 35.0986 57.2359 35.1314 57.3392C35.1728 57.4489 35.1728 57.57 35.1314 57.6797C35.1163 57.7679 35.0862 57.8529 35.0424 57.9309C34.9813 58.0593 34.909 58.1933 34.8256 58.344L34.5809 58.7572C34.5182 58.8556 34.4455 58.9473 34.3641 59.0307L34.3807 59.0363Z" fill="#231F20"/>
<path d="M36.1267 65.9309C36.3435 65.6964 36.6493 65.3335 37.0441 64.8534C37.4366 64.3773 37.8543 63.9226 38.2952 63.4913C38.6769 63.1092 39.096 62.767 39.5463 62.4696C39.9411 62.2128 40.2469 62.1849 40.4638 62.3803C40.5776 62.4807 40.6654 62.6073 40.7197 62.7493C40.7739 62.8913 40.793 63.0444 40.7752 63.1954C40.7453 63.5634 40.6668 63.9257 40.5416 64.2729C40.416 64.6428 40.2675 65.0045 40.0968 65.3559C39.9615 65.6222 39.8462 65.8984 39.752 66.1821C39.6909 66.3887 39.7187 66.5003 39.8299 66.5115C40.1343 66.4223 40.414 66.2638 40.6473 66.0481C41.3402 65.5403 42.003 64.9922 42.6323 64.4068C43.2997 63.7844 43.9135 63.1065 44.4673 62.3803C44.4942 62.3289 44.534 62.2854 44.5827 62.2541C44.6315 62.2227 44.6875 62.2047 44.7453 62.2017C44.8024 62.2039 44.8583 62.2185 44.9091 62.2446C44.96 62.2706 45.0047 62.3074 45.04 62.3524C45.1186 62.4591 45.1609 62.5882 45.1609 62.7209C45.1609 62.8535 45.1186 62.9827 45.04 63.0893C44.8287 63.3684 44.484 63.7648 44.0113 64.2729C43.5387 64.7809 43.0216 65.2945 42.4711 65.7969C41.9566 66.2705 41.4124 66.7106 40.8419 67.1144C40.4682 67.4217 40.0148 67.6154 39.5352 67.6727C39.4282 67.6897 39.3186 67.6751 39.2198 67.6304C39.121 67.5858 39.0374 67.5132 38.9792 67.4215C38.8704 67.2176 38.8186 66.9881 38.829 66.7571C38.8586 66.1801 38.9904 65.6129 39.2182 65.0823C39.4546 64.5353 39.6624 63.9762 39.841 63.4075C39.2287 63.8434 38.6689 64.3493 38.1729 64.9149L36.5048 66.8074C36.2156 67.1479 35.9487 67.4829 35.6596 67.8178C35.3705 68.1528 35.1036 68.4878 34.8756 68.8227L34.7421 68.94C34.6898 68.981 34.625 69.0026 34.5586 69.0014C34.5044 69.0083 34.4492 68.9994 34.3999 68.9756C34.3506 68.9519 34.3091 68.9143 34.2806 68.8674C34.2346 68.7698 34.2117 68.6627 34.2139 68.5547C34.2148 68.4244 34.2335 68.2948 34.2695 68.1695C34.3054 68.039 34.3481 67.9104 34.3974 67.7843C34.7681 66.8799 35.1388 65.9886 35.5095 65.1103C35.8653 64.2338 36.2434 63.3461 36.6215 62.4585C36.6415 62.402 36.6731 62.3505 36.7143 62.3072C36.7555 62.2639 36.8054 62.2298 36.8606 62.2073C36.9084 62.1936 36.9588 62.1921 37.0074 62.2028C37.0559 62.2135 37.101 62.2361 37.1387 62.2687C37.2299 62.347 37.2974 62.4495 37.3333 62.5645C37.378 62.7043 37.378 62.8546 37.3333 62.9944L36.1267 65.9309Z" fill="#231F20"/>
<path d="M45.1956 66.2268C45.9907 65.7393 46.7133 65.1416 47.342 64.4515L49.2325 62.3803C49.2725 62.3363 49.3235 62.3037 49.3801 62.2861C49.4368 62.2684 49.4972 62.2662 49.555 62.2798C49.6072 62.2932 49.6561 62.3169 49.6991 62.3495C49.7421 62.3821 49.7781 62.4229 49.8052 62.4696C49.8681 62.5719 49.9009 62.69 49.8997 62.8102C49.9003 62.8734 49.8883 62.936 49.8645 62.9945C49.8406 63.053 49.8053 63.1061 49.7607 63.1507C49.1231 63.8951 48.4689 64.6152 47.7979 65.3112C47.1602 66.0007 46.4304 66.5981 45.6294 67.0865C45.2337 67.3879 44.7617 67.5716 44.2671 67.6169C43.8445 67.6169 43.5387 67.3936 43.3385 66.8799C43.1987 66.4006 43.1987 65.8911 43.3385 65.4117C43.4751 64.7583 43.661 64.1163 43.8945 63.4913C44.1392 62.8325 44.4005 62.2128 44.673 61.6434C44.9454 61.0739 45.1623 60.6441 45.318 60.3705C45.3791 60.231 45.457 60.1584 45.5571 60.1472C45.607 60.1429 45.6573 60.1485 45.705 60.1639C45.7528 60.1792 45.797 60.2039 45.8351 60.2366C45.9232 60.3086 45.9873 60.406 46.0186 60.5157C46.0601 60.6407 46.0601 60.7759 46.0186 60.9009L45.5515 61.8667C45.3458 62.2854 45.1345 62.7432 44.9176 63.2233C44.7008 63.7034 44.5117 64.1891 44.3616 64.658C44.2153 65.044 44.1199 65.4475 44.078 65.8583C44.0558 66.1821 44.1281 66.3943 44.2949 66.4947C44.4228 66.5952 44.7397 66.5059 45.1956 66.2268ZM46.8638 59.0363C46.8292 59.0721 46.7858 59.0983 46.738 59.112C46.6901 59.1257 46.6396 59.1265 46.5913 59.1144C46.5048 59.0857 46.4278 59.0336 46.3689 58.9637C46.3116 58.8801 46.2736 58.7848 46.2577 58.6846C46.2354 58.5739 46.247 58.4591 46.291 58.3552C46.3728 58.1597 46.4734 57.9727 46.5913 57.7969C46.695 57.6368 46.7861 57.4688 46.8638 57.2945C46.8863 57.244 46.9189 57.1986 46.9595 57.1612C47.0001 57.1238 47.0479 57.0951 47.1 57.0768C47.152 57.0585 47.2072 57.051 47.2622 57.0549C47.3172 57.0587 47.3708 57.0738 47.4198 57.0991C47.4664 57.1242 47.5076 57.1583 47.541 57.1996C47.5745 57.2408 47.5994 57.2882 47.6144 57.3391C47.6559 57.4488 47.6559 57.57 47.6144 57.6797C47.5993 57.7679 47.5692 57.8529 47.5255 57.9309C47.4643 58.0593 47.392 58.1933 47.303 58.344C47.2141 58.4947 47.1418 58.6287 47.0639 58.7571C46.997 58.8525 46.9246 58.9438 46.8471 59.0307L46.8638 59.0363Z" fill="#231F20"/>
<path d="M71.602 51.6392C71.728 51.2926 71.8248 50.9359 71.8912 50.573C71.9432 50.3008 71.9619 50.0234 71.9468 49.7467C71.938 49.4154 71.8073 49.0992 71.5798 48.8591C71.333 48.656 71.0304 48.5333 70.7124 48.5074C70.3571 48.4684 69.9976 48.5026 69.6559 48.6078C69.2536 48.7237 68.8671 48.8887 68.5049 49.0991C67.8502 49.4845 67.2467 49.9516 66.7089 50.4892C66.0509 51.1308 65.4378 51.8173 64.874 52.5436C64.2623 53.3252 63.6618 54.1738 63.0724 55.1005C62.483 56.0272 61.9214 57.0042 61.4043 58.0314C60.8872 59.0586 60.2922 60.231 59.7862 61.381C59.2802 62.531 58.852 63.6531 58.4684 64.7697C58.0847 65.8862 57.7678 66.9581 57.5176 67.9965C57.2784 68.9423 57.1129 69.9055 57.0227 70.8771C56.9891 71.3005 56.978 71.7254 56.9893 72.15C56.9886 72.5434 57.0544 72.9342 57.1839 73.3056C57.2607 73.5955 57.419 73.8572 57.6399 74.0592C57.8864 74.2556 58.2002 74.3459 58.5129 74.3105C59.0058 74.2592 59.4733 74.0652 59.8585 73.7522C60.4519 73.3299 61.0098 72.8593 61.5266 72.3454C62.116 71.7759 62.7239 71.1395 63.3504 70.4361C63.9769 69.7327 64.5737 69.033 65.1409 68.337C65.6969 67.6392 66.2196 66.9748 66.6866 66.3552C67.1537 65.7355 67.5429 65.2386 67.8488 64.8311L67.9377 64.7138C67.9499 64.6865 67.9675 64.662 67.9895 64.6419C68.0115 64.6217 68.0374 64.6063 68.0656 64.5966L68.2158 64.5352C68.3293 64.5466 68.4345 64.6004 68.5105 64.6859C68.5867 64.7988 68.6275 64.932 68.6275 65.0684C68.6275 65.2047 68.5867 65.3379 68.5105 65.4508L68.4215 65.5736C68.099 66.0034 67.6875 66.545 67.1926 67.1814C66.6978 67.8178 66.1529 68.5045 65.5635 69.2247C64.9741 69.9448 64.3568 70.665 63.7174 71.3851C63.078 72.1053 62.4385 72.7641 61.8102 73.3558C61.2596 73.8892 60.6559 74.3644 60.0086 74.7738C59.5619 75.0817 59.046 75.2736 58.5073 75.3321H58.3016C58.239 75.3314 58.1769 75.3201 58.1181 75.2986C57.7755 75.2594 57.4503 75.1261 57.1784 74.9134C56.9216 74.6967 56.7181 74.4235 56.5834 74.1151C56.4234 73.7905 56.3182 73.4415 56.272 73.0823C56.2165 72.6992 56.1813 72.3135 56.1664 71.9267V71.3126C56.168 71.1254 56.1847 70.9387 56.2164 70.7543C56.3065 69.7263 56.4775 68.7071 56.728 67.7062C57.0004 66.5896 57.3341 65.4731 57.74 64.2896C58.1459 63.106 58.613 61.9281 59.1412 60.7222C59.6694 59.5164 60.2533 58.3496 60.8482 57.2052C61.4154 56.1556 62.0085 55.1489 62.6276 54.1849C63.2103 53.267 63.8453 52.3834 64.5292 51.5387C65.1304 50.7926 65.7825 50.0894 66.4809 49.4341C67.0501 48.8868 67.6874 48.4158 68.377 48.0328C68.7812 47.8246 69.2087 47.6653 69.6504 47.5583C70.0353 47.4612 70.434 47.431 70.8292 47.469C71.3145 47.5039 71.7708 47.7141 72.1136 48.0608C72.4949 48.507 72.7145 49.0698 72.7364 49.6574C72.7626 50.4735 72.6305 51.287 72.3471 52.0524V52.0859C72.2919 52.1927 72.2118 52.2847 72.1136 52.3538C72.0652 52.3812 72.0107 52.3956 71.9551 52.3956C71.8996 52.3956 71.845 52.3812 71.7967 52.3538C71.7048 52.2703 71.6326 52.1674 71.5854 52.0524C71.5458 51.9165 71.5517 51.7714 71.602 51.6392Z" fill="#231F20"/>
<path d="M76.7176 60.8116L77.5183 59.628C77.5757 59.5163 77.653 59.416 77.7463 59.3322C77.8386 59.2443 77.9436 59.1709 78.0577 59.1144C78.1014 59.0884 78.1514 59.0746 78.2022 59.0746C78.2531 59.0746 78.303 59.0884 78.3468 59.1144C78.4586 59.2233 78.5243 59.3713 78.5303 59.5276C78.5013 59.7663 78.4434 60.0007 78.3579 60.2254C78.2412 60.5715 78.0966 60.9679 77.9187 61.4257L77.3626 62.8716C77.1815 63.3552 77.0292 63.8492 76.9067 64.351C76.801 64.7686 76.7303 65.1944 76.6954 65.6238C76.6728 65.7704 76.6809 65.9201 76.7192 66.0633C76.7575 66.2065 76.8251 66.3402 76.9178 66.4557L76.9845 66.5115C77.1307 66.5466 77.2827 66.5488 77.4298 66.5179C77.5769 66.4871 77.7154 66.4238 77.8352 66.3328C78.1794 66.1197 78.5016 65.8729 78.7972 65.5959C79.116 65.302 79.4186 64.9907 79.7035 64.6636C79.9871 64.3398 80.2207 64.0774 80.4042 63.882C80.432 63.8374 80.5098 63.7425 80.6321 63.5806C80.7698 63.4056 80.9164 63.2379 81.0714 63.0781C81.2382 62.866 81.4439 62.6259 81.6886 62.3691C81.7291 62.3272 81.7775 62.2938 81.8309 62.2708C81.8844 62.2478 81.9418 62.2357 82 62.2351C82.0499 62.2411 82.0981 62.2576 82.1412 62.2836C82.1843 62.3096 82.2215 62.3444 82.2502 62.3859C82.321 62.4858 82.3615 62.604 82.367 62.7264C82.3714 62.8746 82.3264 63.02 82.2391 63.1395C82.0111 63.4354 81.6497 63.8653 81.1604 64.4292C80.6645 64.9979 80.1392 65.5402 79.5868 66.0537C79.0898 66.5342 78.5394 66.9557 77.9464 67.3098C77.7662 67.4585 77.547 67.5519 77.3152 67.5786C77.0834 67.6053 76.8489 67.5643 76.6397 67.4606C76.3646 67.2755 76.1667 66.9953 76.0837 66.6734C75.9811 66.2935 75.9379 65.8998 75.9558 65.5066C75.9767 65.0388 76.0381 64.5737 76.1393 64.1165C76.2505 63.6252 76.3784 63.1396 76.5341 62.665C76.1171 63.2791 75.6722 63.9211 75.1885 64.591C74.7047 65.261 74.2377 65.8918 73.7761 66.4836C73.3146 67.0753 72.8865 67.6001 72.4806 68.0356C72.1984 68.3785 71.8622 68.6727 71.4853 68.9065C71.3204 68.9836 71.1379 69.0145 70.957 68.9958C70.8298 68.9645 70.7164 68.8919 70.6345 68.7892C70.5336 68.6944 70.4622 68.5722 70.4288 68.4375C70.3493 68.1276 70.3341 67.8045 70.3843 67.4885C70.4799 66.7913 70.6669 66.1099 70.9403 65.4619C71.2481 64.7162 71.6202 63.9989 72.0524 63.3182C72.4574 62.6586 72.9248 62.0398 73.4481 61.4703C73.8658 60.9946 74.3648 60.5975 74.9216 60.298C75.1649 60.1851 75.4326 60.1353 75.7001 60.1528C75.8424 60.1716 75.9789 60.2212 76.1004 60.298C76.2479 60.3961 76.3698 60.5282 76.4563 60.6832L76.5953 61.007L76.7176 60.8116ZM76.0503 61.7885C75.9476 61.6952 75.8758 61.5724 75.8446 61.4368C75.7946 61.2749 75.7112 61.1968 75.5888 61.1968C75.4473 61.2 75.3076 61.2303 75.1774 61.2861C74.7174 61.5395 74.3082 61.8764 73.9708 62.2798C73.5103 62.8 73.0972 63.3605 72.7363 63.9546C72.3443 64.5719 72.0021 65.2197 71.7132 65.8918C71.4445 66.4539 71.2573 67.0518 71.1572 67.6671C71.1472 67.7655 71.1472 67.8646 71.1572 67.963C71.1546 67.9815 71.1546 68.0003 71.1572 68.0188C71.1598 68.0392 71.1598 68.0598 71.1572 68.0802C71.235 68.0802 71.3963 67.9797 71.6409 67.7229C71.8856 67.4661 72.1692 67.1312 72.4973 66.718C72.8253 66.3049 73.1756 65.8416 73.5426 65.328L74.5991 63.8486C74.9383 63.374 75.2274 62.9553 75.4832 62.5924C75.739 62.2296 75.928 61.9504 76.0337 61.7885H76.0503Z" fill="#231F20"/>
<path d="M81.4273 62.559L81.9055 61.9505C82.1223 61.6881 82.3114 61.4369 82.4615 61.1968C82.4022 60.9571 82.4119 60.7055 82.4893 60.471C82.5597 60.1939 82.6743 59.93 82.8285 59.6895C82.9591 59.4719 83.131 59.2822 83.3345 59.1312C83.4071 59.0709 83.495 59.0322 83.5883 59.0194C83.6816 59.0066 83.7767 59.0202 83.8627 59.0586C83.9326 59.0965 83.9935 59.149 84.0415 59.2126C84.0895 59.2762 84.1233 59.3493 84.1407 59.4271C84.171 59.5876 84.171 59.7523 84.1407 59.9128C84.0991 60.107 84.0317 60.2947 83.9406 60.471C83.8516 60.6608 83.7571 60.8339 83.6681 60.9902C83.8548 61.1338 83.9974 61.3273 84.0796 61.5485C84.145 61.8326 84.0971 62.1312 83.9461 62.3803L83.5124 63.2066C83.3456 63.5248 83.1788 63.8486 83.0175 64.1835C82.8575 64.5201 82.72 64.867 82.6061 65.2219C82.4963 65.5465 82.4308 65.8845 82.4115 66.2268C82.4115 66.4613 82.5004 66.5841 82.6839 66.5841C83.095 66.5554 83.4855 66.3927 83.796 66.1207C84.2813 65.7656 84.7403 65.3757 85.1694 64.9539C85.6365 64.5017 86.0813 64.0384 86.4984 63.5638C86.9154 63.0893 87.249 62.7041 87.477 62.4082C87.5137 62.3702 87.5578 62.3401 87.6066 62.3199C87.6554 62.2998 87.7078 62.2899 87.7606 62.291C87.8173 62.2907 87.8733 62.3043 87.9236 62.3306C87.974 62.3568 88.0173 62.395 88.0497 62.4417C88.1311 62.5467 88.1725 62.6773 88.1665 62.8102C88.1725 62.943 88.1311 63.0737 88.0497 63.1786C87.7717 63.5136 87.4103 63.9435 86.9376 64.4682C86.465 64.993 85.9979 65.4955 85.4808 65.9923C84.9964 66.4541 84.4653 66.8639 83.8961 67.2149C83.4612 67.5192 82.9341 67.6613 82.4059 67.6169C82.2309 67.5782 82.0694 67.493 81.9383 67.3703C81.8072 67.2475 81.7114 67.0917 81.6608 66.919C81.5589 66.5286 81.5475 66.1199 81.6274 65.7243C81.6914 65.345 81.7863 64.9716 81.911 64.6078C82.0445 64.2338 82.189 63.8653 82.3503 63.4913C82.4951 63.1658 82.6585 62.8489 82.8396 62.5422C82.9707 62.3251 83.1175 62.118 83.2789 61.9225L83.0954 61.8332C82.8785 62.1291 82.6617 62.4194 82.4393 62.7041C82.2168 62.9888 82.0612 63.1842 81.9722 63.2624C81.94 63.3063 81.8981 63.3422 81.8499 63.3673C81.8018 63.3925 81.7485 63.4062 81.6942 63.4075C81.6392 63.4059 81.5852 63.392 81.5362 63.3669C81.4871 63.3418 81.4442 63.3061 81.4106 63.2624C81.3213 63.1546 81.2757 63.0172 81.2827 62.8772C81.2909 62.757 81.3423 62.6439 81.4273 62.559V62.559Z" fill="#231F20"/>
<path d="M88.1943 66.2268C88.9894 65.7393 89.7119 65.1417 90.3406 64.4515L92.2312 62.3803C92.2708 62.3358 92.3218 62.3029 92.3786 62.2852C92.4354 62.2675 92.4959 62.2657 92.5537 62.2798C92.6058 62.2932 92.6548 62.3169 92.6978 62.3495C92.7407 62.3821 92.7768 62.4229 92.8039 62.4697C92.8668 62.5719 92.8996 62.69 92.8984 62.8102C92.8967 62.9373 92.847 63.059 92.7594 63.1507C92.1144 63.8821 91.4638 64.6022 90.7966 65.3112C90.1576 65.9994 89.4281 66.5967 88.628 67.0865C88.2319 67.3871 87.7601 67.5707 87.2657 67.6169C86.8431 67.6169 86.5317 67.3936 86.3371 66.88C86.1998 66.4003 86.1998 65.8914 86.3371 65.4117C86.4765 64.759 86.6623 64.1172 86.8932 63.4913C87.1378 62.8325 87.3936 62.2128 87.6716 61.6434C87.9497 61.074 88.161 60.6441 88.3111 60.3706C88.328 60.3146 88.3597 60.2643 88.4027 60.225C88.4458 60.1857 88.4987 60.1588 88.5557 60.1473C88.6048 60.1427 88.6543 60.1483 88.7012 60.1636C88.748 60.179 88.7913 60.2038 88.8282 60.2366C88.9163 60.3086 88.9804 60.406 89.0117 60.5157C89.0572 60.6401 89.0572 60.7766 89.0117 60.9009L88.5446 61.8667C88.3389 62.2854 88.1276 62.7432 87.9107 63.2233C87.6939 63.7034 87.5048 64.1891 87.3547 64.658C87.2095 65.0447 87.1124 65.4478 87.0655 65.8583C87.0655 66.1821 87.1156 66.4166 87.288 66.4947C87.4603 66.5729 87.7328 66.5059 88.1943 66.2268ZM89.8624 59.0363C89.827 59.0727 89.7826 59.099 89.7338 59.1127C89.685 59.1264 89.6335 59.127 89.5844 59.1145C89.5001 59.0844 89.4253 59.0323 89.3676 58.9637C89.3083 58.8807 89.2684 58.7853 89.2508 58.6846C89.2302 58.5734 89.2438 58.4585 89.2897 58.3552C89.3696 58.16 89.4684 57.973 89.5844 57.797C89.692 57.6382 89.7851 57.4701 89.8624 57.2945C89.885 57.241 89.9191 57.1931 89.9624 57.1545C90.0057 57.1159 90.057 57.0874 90.1127 57.0712C90.2125 57.0409 90.3203 57.0509 90.4129 57.0991C90.5056 57.1517 90.5751 57.2374 90.6075 57.3392C90.649 57.4489 90.649 57.57 90.6075 57.6797C90.5894 57.7679 90.5575 57.8527 90.513 57.9309C90.4518 58.0593 90.3796 58.1933 90.2962 58.3441C90.2128 58.4948 90.1349 58.6288 90.057 58.7572C89.9919 58.8524 89.9214 58.9437 89.8457 59.0307L89.8624 59.0363Z" fill="#231F20"/>
<path d="M95.1226 63.5917C95.3202 63.7732 95.5708 63.8858 95.8372 63.913C96.1037 63.9401 96.3717 63.8803 96.6016 63.7425C97.239 63.3698 97.8227 62.9115 98.3365 62.3803C98.3689 62.336 98.4118 62.3005 98.4613 62.2771C98.5108 62.2537 98.5654 62.2431 98.6201 62.2463C98.6774 62.2517 98.733 62.2694 98.7829 62.2984C98.8328 62.3273 98.8758 62.3666 98.9092 62.4138C98.9493 62.4655 98.9787 62.5247 98.9959 62.588C99.0131 62.6512 99.0176 62.7172 99.0093 62.7823C99.0063 62.9146 98.9637 63.043 98.887 63.1507C98.5694 63.4876 98.2314 63.8046 97.875 64.0998C97.5656 64.3565 97.2234 64.5706 96.8574 64.7362C96.5344 64.8757 96.1859 64.946 95.8343 64.9427C95.4674 64.922 95.115 64.7917 94.8223 64.5687C94.6927 64.9281 94.5443 65.2803 94.3775 65.6238C94.2065 65.9767 94.0036 66.3131 93.7714 66.6287C93.5528 66.9212 93.2879 67.1758 92.9874 67.3824C92.7138 67.5744 92.379 67.6579 92.0477 67.6168C91.8581 67.5991 91.6762 67.5328 91.5195 67.4243C91.3627 67.3158 91.2363 67.1688 91.1524 66.9972C91.1237 66.9561 91.1012 66.9109 91.0857 66.8632C91.0706 66.8142 91.0461 66.7687 91.0134 66.7292C90.8455 66.2358 90.8035 65.7079 90.8911 65.194C90.974 64.6452 91.135 64.1112 91.3693 63.6085C91.6017 63.1182 91.891 62.6572 92.2312 62.2351C92.5166 61.8669 92.8672 61.5546 93.2654 61.314C93.2331 61.0262 93.2634 60.7347 93.3544 60.4599C93.4309 60.2118 93.5599 59.9833 93.7325 59.7899C93.8798 59.6348 94.0765 59.536 94.2885 59.5108C94.4167 59.5115 94.5431 59.541 94.6586 59.597C94.774 59.653 94.8755 59.7342 94.9558 59.8346C95.1423 60.0567 95.2721 60.3212 95.3339 60.605C95.406 60.9197 95.4378 61.2424 95.4284 61.5652C95.418 61.9135 95.3827 62.2605 95.3227 62.6036C95.2671 62.9386 95.2004 63.2791 95.1226 63.5917ZM93.4545 62.3524C93.2137 62.5435 93.0004 62.7671 92.8206 63.0167C92.5609 63.3577 92.3303 63.72 92.1311 64.0998C91.9309 64.4824 91.7814 64.8897 91.6863 65.3112C91.5876 65.6685 91.6294 66.0502 91.803 66.3775V66.3775C91.844 66.4526 91.9094 66.5114 91.9884 66.5439C92.0673 66.5764 92.155 66.5807 92.2367 66.5561C92.4738 66.4906 92.6914 66.3679 92.8706 66.1988C93.0697 66.0116 93.2419 65.7974 93.3822 65.5624C93.5449 65.3018 93.688 65.0293 93.8103 64.7473C93.9382 64.457 94.0494 64.1891 94.1439 63.8932L93.7158 63.1507C93.5759 62.9147 93.4851 62.6526 93.4489 62.3803L93.4545 62.3524ZM94.5999 61.2359C94.6038 61.0978 94.5772 60.9605 94.522 60.8339C94.4664 60.7278 94.4108 60.6608 94.3497 60.6441C94.2885 60.6274 94.2273 60.6441 94.1773 60.7278C94.1093 60.8569 94.0731 61.0005 94.0717 61.1465C94.1577 61.1459 94.2435 61.1552 94.3274 61.1744L94.5999 61.2359ZM94.5554 62.2966C94.5173 62.3082 94.4767 62.3082 94.4386 62.2966C94.3879 62.2744 94.3326 62.2648 94.2774 62.2686C94.2792 62.3573 94.3042 62.4439 94.3497 62.5199C94.3942 62.6092 94.4387 62.6929 94.4831 62.7711L94.5554 62.2966Z" fill="#231F20"/>
<path d="M100.928 61.3475C100.867 61.2976 100.793 61.2668 100.715 61.2589C100.637 61.2509 100.558 61.2662 100.488 61.3028C100.295 61.3882 100.118 61.5073 99.9657 61.6546C99.7803 61.8281 99.6075 62.0147 99.4486 62.2128L99.0482 62.7153C98.8314 63.0167 98.6256 63.3349 98.4254 63.6811C98.2253 64.0272 98.0473 64.3678 97.8694 64.7027C97.6915 65.0377 97.5636 65.3559 97.4357 65.6629C97.3078 65.97 97.2022 66.2212 97.1243 66.478C97.0429 66.7104 96.9742 66.9471 96.9186 67.187C96.8618 67.3979 96.8393 67.6165 96.8518 67.8346C96.8518 68.0133 97.002 68.0523 97.3078 67.9574C97.8408 67.7669 98.3487 67.512 98.8202 67.1982C99.3743 66.8459 99.9038 66.4561 100.405 66.0314C100.928 65.596 101.428 65.1382 101.917 64.658C102.407 64.1779 102.852 63.7257 103.252 63.3126C103.391 63.1507 103.524 63 103.663 62.8492C103.802 62.6985 103.941 62.5534 104.075 62.3915C104.208 62.2296 104.264 62.2296 104.364 62.2575C104.464 62.2892 104.551 62.3517 104.614 62.4361C104.689 62.5349 104.733 62.6531 104.742 62.7767C104.75 62.8455 104.744 62.9154 104.724 62.9817C104.704 63.048 104.67 63.1094 104.625 63.1619L103.663 64.2282C103.541 64.3677 103.319 64.5966 102.996 64.9204C102.674 65.2442 102.307 65.6015 101.884 65.9867C101.461 66.3719 101.011 66.7683 100.522 67.1703C100.061 67.554 99.5785 67.9101 99.076 68.2366C98.6567 68.5138 98.2094 68.7459 97.7415 68.9288C97.421 69.0837 97.0551 69.1155 96.7128 69.0182H96.6684C96.5223 68.951 96.3951 68.8485 96.298 68.7199C96.201 68.5913 96.1372 68.4406 96.1123 68.2812C95.9981 67.6881 96.0442 67.0751 96.2458 66.5059C96.3269 66.1576 96.4347 65.816 96.5683 65.4843C96.7073 65.1382 96.8574 64.7809 97.0298 64.4068C97.2768 63.8881 97.5515 63.383 97.8527 62.8939C98.1369 62.4346 98.4508 61.9944 98.7924 61.5764C99.0815 61.2252 99.4099 60.9086 99.7711 60.6329C100.03 60.4165 100.344 60.2773 100.677 60.231C100.929 60.24 101.17 60.3345 101.361 60.4989C101.48 60.5873 101.576 60.7027 101.642 60.8356C101.708 60.9686 101.741 61.1153 101.739 61.2638C101.749 61.4383 101.71 61.6121 101.628 61.7662C101.601 61.8167 101.563 61.8604 101.517 61.8942C101.471 61.928 101.418 61.951 101.361 61.9616C101.307 61.9627 101.253 61.9493 101.205 61.9228C101.157 61.8964 101.117 61.8578 101.089 61.8109C100.993 61.6746 100.937 61.514 100.928 61.3475V61.3475Z" fill="#231F20"/>
<path d="M108.017 60.8116L108.818 59.628C108.878 59.5163 108.957 59.4161 109.051 59.3322C109.142 59.2445 109.245 59.1711 109.357 59.1144C109.401 59.0884 109.451 59.0746 109.502 59.0746C109.553 59.0746 109.603 59.0884 109.646 59.1144C109.758 59.2233 109.824 59.3713 109.83 59.5276C109.804 59.7669 109.746 60.0015 109.658 60.2254C109.541 60.5715 109.396 60.9679 109.224 61.4257C109.051 61.8834 108.862 62.358 108.668 62.8716C108.485 63.3551 108.331 63.8491 108.206 64.351C108.1 64.7682 108.031 65.1942 108.001 65.6238C107.98 65.77 107.989 65.9188 108.026 66.0616C108.063 66.2043 108.128 66.3383 108.217 66.4557L108.29 66.5115C108.435 66.5462 108.586 66.5481 108.732 66.5172C108.878 66.4864 109.016 66.4234 109.135 66.3328C109.48 66.121 109.802 65.8741 110.097 65.5959C110.417 65.3034 110.72 64.9921 111.003 64.6636C111.287 64.3398 111.52 64.0774 111.704 63.882L111.937 63.5806C112.06 63.4243 112.204 63.2568 112.371 63.0781C112.538 62.866 112.744 62.6259 112.988 62.3691C113.071 62.2855 113.182 62.2374 113.3 62.2351C113.35 62.2411 113.398 62.2576 113.441 62.2836C113.484 62.3096 113.521 62.3444 113.55 62.3859C113.625 62.4833 113.666 62.6031 113.667 62.7264C113.671 62.8746 113.626 63.02 113.539 63.1395C113.311 63.4354 112.949 63.8653 112.46 64.4292C111.971 64.993 111.448 65.5457 110.892 66.0537C110.384 66.5333 109.825 66.9546 109.224 67.3098C109.044 67.4585 108.824 67.5519 108.593 67.5786C108.361 67.6053 108.126 67.5643 107.917 67.4605C107.639 67.2786 107.44 66.9972 107.361 66.6734C107.256 66.294 107.213 65.8999 107.233 65.5066C107.254 65.0388 107.315 64.5736 107.417 64.1165C107.521 63.6261 107.651 63.1416 107.806 62.665C107.394 63.2791 106.944 63.9211 106.466 64.591C105.988 65.261 105.509 65.8918 105.053 66.4836C104.598 67.0753 104.164 67.6001 103.758 68.0356C103.474 68.379 103.136 68.6732 102.757 68.9065C102.592 68.9839 102.41 69.0148 102.229 68.9958C102.102 68.9645 101.988 68.8918 101.906 68.7892C101.807 68.6929 101.736 68.5713 101.701 68.4375C101.627 68.1268 101.612 67.8048 101.656 67.4885C101.757 66.7924 101.944 66.1117 102.212 65.4619C102.522 64.7173 102.894 64.0001 103.324 63.3182C103.729 62.6572 104.199 62.0382 104.725 61.4703C105.142 60.996 105.639 60.5992 106.193 60.298C106.437 60.1856 106.704 60.1357 106.972 60.1528C107.116 60.1725 107.254 60.2219 107.378 60.298C107.524 60.3958 107.644 60.528 107.728 60.6832L107.867 61.007L108.017 60.8116ZM107.35 61.7885C107.249 61.6937 107.178 61.5715 107.144 61.4368C107.1 61.2749 107.016 61.1968 106.894 61.1968C106.752 61.199 106.612 61.2293 106.483 61.2861C106.021 61.5379 105.612 61.8751 105.276 62.2798C104.814 62.7998 104.399 63.3603 104.036 63.9546C103.648 64.5743 103.306 65.2218 103.013 65.8918C102.747 66.4549 102.56 67.0524 102.457 67.6671C102.45 67.7656 102.45 67.8645 102.457 67.963C102.454 67.9815 102.454 68.0003 102.457 68.0188C102.462 68.039 102.462 68.0601 102.457 68.0802C102.535 68.0802 102.696 67.9797 102.941 67.7229C103.185 67.4661 103.497 67.1312 103.802 66.718C104.108 66.3049 104.481 65.8416 104.848 65.328L105.904 63.8485L106.783 62.5924C107.066 62.2072 107.244 61.9504 107.35 61.7885V61.7885Z" fill="#231F20"/>
<path d="M35.2759 30.4028C35.1841 30.36 35.1031 30.2973 35.0386 30.219C34.9742 30.1408 34.9279 30.0491 34.9033 29.9506C34.8537 29.7546 34.8537 29.5492 34.9033 29.3532C34.946 29.1778 35.0387 29.0187 35.1702 28.8954C35.2334 28.8367 35.3119 28.7972 35.3965 28.7814C35.4811 28.7656 35.5685 28.7742 35.6484 28.8061C35.8093 28.8444 35.977 28.8436 36.1375 28.8038C36.2981 28.764 36.4468 28.6863 36.5715 28.5772C37.0153 28.2446 37.4185 27.8604 37.7725 27.4328C38.4711 26.6561 39.1052 25.8233 39.6686 24.9429C40.321 23.9566 40.9642 22.8978 41.5981 21.7664C41.8372 20.9457 42.1541 19.8962 42.56 18.6177C42.9659 17.3393 43.3996 15.9715 43.889 14.5256C44.3783 13.0797 44.8843 11.6003 45.4292 10.093C45.9741 8.58567 46.5135 7.19 47.0584 5.91157C47.5884 4.57763 48.2224 3.28775 48.9545 2.05394C49.5773 1.03231 50.1389 0.507528 50.6226 0.474032C50.7745 0.445351 50.9315 0.465543 51.0713 0.531702C51.2111 0.597862 51.3265 0.706617 51.4011 0.842491C51.5512 1.15678 51.6345 1.49901 51.6457 1.84738C51.669 2.23857 51.6276 2.63092 51.5234 3.00857C51.4178 3.42169 51.3399 3.70642 51.2954 3.85715V3.9018C50.9618 5.063 50.5114 6.36935 49.9442 7.80968C49.3771 9.25001 48.721 10.8131 47.9647 12.4265C47.1807 14.1628 46.3467 15.8878 45.4459 17.6129C44.5451 19.3379 43.6499 20.9625 42.7546 22.4307C42.4729 23.4356 42.1838 24.5019 41.8872 25.6296C41.5925 26.7461 41.3034 27.8906 41.0365 29.035C40.7696 30.1795 40.5082 31.3071 40.2747 32.4181C40.0412 33.5291 39.8354 34.6009 39.6686 35.6393C39.4573 36.9196 39.3164 38.0696 39.246 39.0894C39.1668 39.934 39.1911 40.7852 39.3183 41.6239C39.3424 41.809 39.4028 41.9874 39.4962 42.1487C39.563 42.2548 39.6797 42.2045 39.8465 41.9868C40.2688 41.5676 40.642 41.1012 40.9586 40.5967C41.3868 39.9715 41.7983 39.3015 42.1986 38.587C42.599 37.8724 42.9659 37.1969 43.3107 36.5716C43.6554 35.9464 43.8667 35.483 44.0558 35.1815L44.1614 34.9973L44.534 34.2436C44.7341 33.8305 45.0511 33.1941 45.4904 32.3232C45.9296 31.4523 46.5468 30.2297 47.3475 28.6442L50.3946 22.6373C51.4103 20.6424 52.4742 18.6996 53.5863 16.8089C54.0925 15.8656 54.6494 14.9505 55.2544 14.0678C55.8322 13.1996 56.5435 12.4289 57.3618 11.7845C57.7857 11.4252 58.3319 11.2451 58.8854 11.2821C59.358 11.3435 59.8029 11.8404 60.231 12.8341C60.3032 13.0524 60.2892 13.2901 60.1921 13.4984C60.1235 13.6709 60.0004 13.816 59.8418 13.9115C59.7723 13.9448 59.6963 13.962 59.6194 13.962C59.5424 13.962 59.4664 13.9448 59.3969 13.9115C59.3091 13.8674 59.2329 13.8028 59.1749 13.7232C59.1169 13.6436 59.0786 13.5512 59.0633 13.4538C58.9187 13.1188 58.7519 12.9457 58.5629 12.929C58.3441 12.9208 58.1302 12.9944 57.9623 13.1356C57.607 13.4251 57.2861 13.7548 57.006 14.1181C56.6723 14.5256 56.3609 14.9443 56.0662 15.3742C55.7715 15.8041 55.5102 16.2172 55.2544 16.6303C54.9987 17.0434 54.8096 17.3672 54.665 17.6129C53.5307 19.5333 52.4631 21.4668 51.4622 23.4133C50.4614 25.3598 49.4623 27.3397 48.4652 29.3532C47.7812 30.7545 47.0918 32.1446 46.3911 33.5123C45.6905 34.8801 44.9788 36.2534 44.2504 37.6267C43.9668 38.1124 43.6943 38.6205 43.3996 39.1564C43.1049 39.6923 42.8436 40.2171 42.5155 40.7307C42.2152 41.2352 41.8886 41.7235 41.5369 42.1934C41.2143 42.6325 40.841 43.0316 40.4248 43.3825C40.1223 43.6727 39.7298 43.8501 39.3128 43.8849C38.968 43.8849 38.6677 43.6281 38.4064 43.1089C38.0334 42.197 37.87 41.2124 37.9282 40.2283C37.9553 38.8201 38.0798 37.4154 38.3008 36.0245C38.5417 34.4428 38.8438 32.7977 39.2071 31.0894C39.5704 29.3811 39.954 27.7529 40.3581 26.2046L39.3517 27.7677C38.9865 28.3014 38.5713 28.7986 38.1117 29.2527C37.7032 29.6619 37.2366 30.008 36.7271 30.2799C36.5063 30.3985 36.2637 30.4705 36.0141 30.4916C35.7646 30.5127 35.5134 30.4825 35.2759 30.4028ZM48.5653 5.72733C48.1649 6.64289 47.759 7.61987 47.3587 8.65267C46.9583 9.68546 46.5802 10.6903 46.2466 11.645C45.913 12.5996 45.5849 13.4761 45.3291 14.2521C45.0733 15.0281 44.8676 15.6143 44.723 16.0106C45.2679 14.9425 45.7461 13.9916 46.1576 13.1579C46.5746 12.3205 46.8749 11.6729 47.064 11.2151C47.1362 11.0923 47.2808 10.7741 47.5088 10.2549C47.7368 9.7357 47.9925 9.13835 48.2872 8.40144C48.5819 7.66452 48.8822 6.9332 49.188 6.14046C49.4938 5.34772 49.7441 4.60523 49.9665 3.90739C50.1566 3.49563 50.2822 3.05687 50.339 2.60662C50.3057 2.52846 50.1889 2.65128 49.9887 2.96949C49.7885 3.2877 49.5495 3.71757 49.277 4.24793C49.0045 4.77828 48.7543 5.27513 48.5653 5.72733V5.72733Z" fill="#AE7A2B"/>
<path d="M80.888 7.32952C81.0794 6.79366 81.2263 6.24281 81.3273 5.68262C81.4083 5.26166 81.4382 4.83237 81.4162 4.40418C81.4076 3.89287 81.2093 3.40319 80.8602 3.03085C80.4788 2.71135 80.0093 2.51655 79.5146 2.47258C78.9662 2.41704 78.4123 2.47209 77.8854 2.63448C77.2666 2.81474 76.6712 3.06769 76.1116 3.38813C75.0985 3.98429 74.1644 4.70644 73.3314 5.53746C72.3139 6.52903 71.3664 7.59044 70.4956 8.71401C69.5014 9.98238 68.5734 11.3017 67.7154 12.6666C66.8035 14.0957 65.9361 15.603 65.1131 17.1885C64.2123 18.8633 63.3783 20.5846 62.6109 22.3525C61.8436 24.1203 61.1652 25.864 60.5758 27.5835C59.9864 29.3029 59.4916 30.9666 59.1023 32.5632C58.7378 34.0308 58.4832 35.5237 58.3406 37.0294C58.2961 37.6714 58.2794 38.3245 58.2905 38.9945C58.2908 39.6008 58.3923 40.2027 58.5908 40.7753C58.7075 41.2252 58.953 41.6309 59.2969 41.9421C59.6784 42.2463 60.164 42.3867 60.6481 42.3329C61.4054 42.2591 62.1245 41.9641 62.7166 41.4844C63.639 40.8341 64.5057 40.1077 65.3077 39.3127C66.2122 38.4306 67.1501 37.4481 68.1213 36.365C69.0925 35.282 70.0193 34.2008 70.9015 33.1215C71.7745 32.044 72.5696 31.0224 73.2925 30.0622C74.0153 29.102 74.6103 28.3204 75.0829 27.7063L75.2275 27.5277C75.2452 27.4849 75.2717 27.4465 75.3052 27.4147C75.3388 27.383 75.3786 27.3587 75.4221 27.3434L75.6501 27.2541C75.8262 27.2684 75.9907 27.348 76.1116 27.4774C76.2354 27.6511 76.2981 27.8613 76.2895 28.0747C76.299 28.2866 76.2362 28.4953 76.1116 28.6665L75.9726 28.8507C75.4722 29.5207 74.8605 30.3525 74.0765 31.3406C73.2925 32.3287 72.4695 33.3839 71.5576 34.4948C70.6457 35.6058 69.7004 36.7279 68.7051 37.8444C67.7098 38.961 66.7312 39.9714 65.7637 40.887C64.9099 41.707 63.9788 42.4418 62.9835 43.081C62.2942 43.5584 61.4973 43.8558 60.6648 43.9463H60.3423C60.2461 43.9451 60.1506 43.9301 60.0587 43.9016C59.5303 43.837 59.029 43.6307 58.6074 43.3043C58.2124 42.9691 57.8971 42.5495 57.6844 42.0761C57.4448 41.5696 57.2836 41.0293 57.2062 40.4739C57.1228 39.8835 57.0708 39.289 57.0505 38.693V37.7551C57.0512 37.4562 57.0735 37.1576 57.1173 36.8619C57.2606 35.2745 57.5284 33.7009 57.918 32.1557C58.3294 30.4548 58.8484 28.6963 59.4749 26.8801C60.1013 25.0638 60.8223 23.229 61.6379 21.3755C62.4497 19.5146 63.3301 17.7021 64.2791 15.938C65.1502 14.3265 66.0639 12.7726 67.0203 11.2765C67.9252 9.85922 68.9072 8.49312 69.9618 7.18436C70.8902 6.03426 71.8972 4.95046 72.9755 3.94082C73.8756 3.0884 74.8832 2.35827 75.9726 1.76915C76.5959 1.44866 77.2547 1.20319 77.9354 1.03782C78.5316 0.890861 79.1481 0.845574 79.7592 0.903845C80.5083 0.957821 81.213 1.28086 81.7443 1.81382C82.3327 2.5036 82.6699 3.37373 82.7007 4.28136C82.7439 5.54271 82.5398 6.8003 82.1001 7.98268V8.03292C82.0187 8.19742 81.8961 8.33785 81.7443 8.44046C81.6701 8.487 81.5843 8.51168 81.4968 8.51168C81.4094 8.51168 81.3236 8.487 81.2494 8.44046C81.1069 8.31723 80.9979 8.15973 80.9325 7.98268C80.8414 7.77703 80.8257 7.5457 80.888 7.32952V7.32952Z" fill="#AE7A2B"/>
<path d="M57.929 13.0406C57.929 13.0406 58.7908 12.5493 59.1912 13.7775C59.5915 15.0057 60.6647 17.931 58.1403 34.2436C58.1403 34.2436 63.3171 14.7043 59.4414 11.7901L57.929 13.0406Z" fill="#AE7A2B"/>
<path d="M75.5611 29.3364C75.5611 29.3364 81.3995 19.8068 90.741 24.5297C90.741 24.5297 84.5355 16.2227 75.233 27.4495L75.5611 29.3364Z" fill="#AE7A2B"/>
<path d="M36.0321 28.8451C36.0321 28.8451 30.7219 28.8451 31.3558 20.8116C31.3558 20.8116 31.556 31.4187 36.3935 30.358" fill="#AE7A2B"/>
<path d="M4.86051 77.7383V74.7627H5.81689V82.1765H4.86051V81.5847C4.65566 81.8095 4.40656 81.989 4.12898 82.112C3.8514 82.2351 3.5514 82.2988 3.24799 82.2993C2.55045 82.2993 1.88149 82.0211 1.38825 81.5259C0.895019 81.0307 0.61792 80.3591 0.61792 79.6587C0.61792 78.9584 0.895019 78.2867 1.38825 77.7915C1.88149 77.2963 2.55045 77.0181 3.24799 77.0181C3.55192 77.0186 3.85239 77.083 4.13009 77.207C4.40779 77.331 4.65659 77.512 4.86051 77.7383V77.7383ZM4.86051 80.016V79.307C4.79676 78.9955 4.63959 78.7111 4.41011 78.4919C4.26034 78.3348 4.07974 78.2105 3.87972 78.1269C3.67971 78.0433 3.4646 78.0022 3.24799 78.0062C3.00918 77.9667 2.76467 77.9798 2.53141 78.0446C2.29815 78.1095 2.08175 78.2245 1.8972 78.3817C1.71266 78.5389 1.5644 78.7346 1.46272 78.9551C1.36104 79.1756 1.30838 79.4157 1.30838 79.6587C1.30838 79.9017 1.36104 80.1418 1.46272 80.3623C1.5644 80.5828 1.71266 80.7785 1.8972 80.9357C2.08175 81.093 2.29815 81.208 2.53141 81.2728C2.76467 81.3377 3.00918 81.3508 3.24799 81.3112C3.46997 81.3155 3.69035 81.2725 3.89452 81.1849C4.09869 81.0973 4.28201 80.9672 4.43235 80.8032C4.65075 80.5901 4.79998 80.3157 4.86051 80.016V80.016Z" fill="#AE7A2B"/>
<path d="M8.68048 81.099C8.93923 81.2668 9.24696 81.3416 9.55348 81.3112C9.77084 81.3146 9.98661 81.2733 10.1874 81.1898C10.3883 81.1063 10.5699 80.9823 10.7212 80.8255C10.7601 80.7864 10.8435 80.6915 10.9658 80.5407L11.9222 80.8813C11.7677 81.1094 11.5967 81.3258 11.4107 81.5289C11.0513 81.8851 10.5972 82.1297 10.1028 82.2333C9.60838 82.3369 9.09473 82.295 8.62343 82.1128C8.15214 81.9306 7.74322 81.6157 7.44574 81.2059C7.14826 80.7962 6.97486 80.3089 6.94633 79.8027C6.9178 79.2964 7.03536 78.7927 7.28491 78.3518C7.53445 77.911 7.90539 77.5518 8.3532 77.3174C8.80101 77.0829 9.30669 76.9832 9.80956 77.0301C10.3124 77.077 10.7911 77.2686 11.1882 77.5819C11.2664 77.6483 11.3407 77.7191 11.4107 77.7941C11.444 77.822 11.533 77.9225 11.6776 78.0844L11.1938 78.5701L8.68048 81.099ZM10.2763 78.129C10.0513 78.0217 9.80111 77.9792 9.55348 78.0062C9.33704 78.0035 9.12233 78.0452 8.92251 78.1287C8.72268 78.2122 8.54193 78.3358 8.39134 78.4919C8.23479 78.6423 8.11098 78.8236 8.02772 79.0244C7.94446 79.2252 7.90356 79.4412 7.90758 79.6587C7.88281 79.9096 7.92704 80.1626 8.03547 80.39L10.2763 78.129Z" fill="#AE7A2B"/>
<path d="M18.1276 75.6447C18.1924 75.7052 18.2437 75.7788 18.2782 75.8605C18.3127 75.9423 18.3296 76.0305 18.3278 76.1192C18.3293 76.2088 18.3123 76.2978 18.2779 76.3804C18.2434 76.463 18.1922 76.5376 18.1276 76.5994C18.0004 76.7215 17.8311 76.7897 17.655 76.7897C17.4789 76.7897 17.3096 76.7215 17.1823 76.5994C17.1177 76.5376 17.0666 76.463 17.0321 76.3804C16.9977 76.2978 16.9807 76.2088 16.9822 76.1192C16.9804 76.0305 16.9973 75.9423 17.0318 75.8605C17.0663 75.7788 17.1176 75.7052 17.1823 75.6447C17.3083 75.52 17.4781 75.45 17.655 75.45C17.8319 75.45 18.0017 75.52 18.1276 75.6447V75.6447ZM18.1276 77.4089V82.1765H17.1712V77.4089H18.1276Z" fill="#AE7A2B"/>
<path d="M23.7158 77.7382V77.4089H24.6778V80.9539C24.703 81.3436 24.6495 81.7344 24.5205 82.1028C24.3915 82.4711 24.1897 82.8095 23.9271 83.0977C23.4062 83.5371 22.7476 83.778 22.0672 83.778C21.3868 83.778 20.7281 83.5371 20.2072 83.0977C20.0256 82.8962 19.8566 82.6837 19.7012 82.4612L20.652 82.1151C20.7744 82.2658 20.8578 82.3607 20.9023 82.4054C21.0539 82.5597 21.235 82.6817 21.4346 82.7642C21.6343 82.8467 21.8485 82.888 22.0644 82.8855C22.8262 82.8855 23.3488 82.3831 23.6435 81.3838C23.5018 81.6647 23.2805 81.8973 23.0074 82.0523C22.7343 82.2072 22.4217 82.2776 22.1089 82.2547C21.7652 82.2607 21.4239 82.1977 21.1049 82.0692C20.786 81.9407 20.4958 81.7494 20.2517 81.5066C20.0013 81.27 19.8031 80.9833 19.67 80.665C19.5368 80.3467 19.4717 80.0039 19.4788 79.6587C19.4803 78.9593 19.758 78.2891 20.2511 77.7951C20.7442 77.3011 21.4123 77.0236 22.1089 77.0237C22.4114 77.0243 22.7106 77.0881 22.9873 77.2111C23.2639 77.3341 23.512 77.5137 23.7158 77.7382V77.7382ZM23.7158 79.2902C23.6359 78.9268 23.4377 78.6005 23.1525 78.3628C22.8674 78.1251 22.5114 77.9895 22.141 77.9774C21.7705 77.9654 21.4066 78.0775 21.1067 78.2962C20.8068 78.5149 20.5879 78.8276 20.4848 79.1851C20.3816 79.5425 20.3999 79.9243 20.5368 80.2701C20.6738 80.6159 20.9215 80.9061 21.241 81.0948C21.5605 81.2836 21.9334 81.3601 22.301 81.3123C22.6686 81.2646 23.0099 81.0952 23.271 80.8311C23.4933 80.6185 23.6481 80.3446 23.7158 80.0439V79.2902Z" fill="#AE7A2B"/>
<path d="M27.0409 78.6873V82.1764H26.079V77.4089H27.0409V77.9671C27.1196 77.7133 27.2818 77.4937 27.5011 77.3446C27.7203 77.1955 27.9836 77.1256 28.2476 77.1465C28.4806 77.1377 28.7126 77.1836 28.9249 77.2805C29.1372 77.3774 29.3242 77.5227 29.4709 77.7048C29.785 78.0939 29.9507 78.5829 29.9379 79.0837V82.182H28.9815V79.1283C28.9839 78.9969 28.9589 78.8665 28.9082 78.7454C28.8574 78.6242 28.782 78.5151 28.6868 78.4249C28.4951 78.239 28.2389 78.1351 27.9723 78.1351C27.7057 78.1351 27.4496 78.239 27.2578 78.4249C27.1726 78.5007 27.0994 78.5892 27.0409 78.6873Z" fill="#AE7A2B"/>
<path d="M41.1754 77.7383V74.7627H42.1318V82.1765H41.1754V81.5847C40.9706 81.8095 40.7215 81.989 40.4439 82.112C40.1663 82.2351 39.8663 82.2988 39.5629 82.2993C38.8654 82.2993 38.1964 82.0211 37.7032 81.5259C37.21 81.0307 36.9329 80.3591 36.9329 79.6587C36.9329 78.9584 37.21 78.2867 37.7032 77.7915C38.1964 77.2963 38.8654 77.0181 39.5629 77.0181C39.8669 77.0186 40.1673 77.083 40.445 77.207C40.7227 77.331 40.9715 77.512 41.1754 77.7383V77.7383ZM41.1754 80.016V79.307C41.1117 78.9955 40.9545 78.7111 40.725 78.4919C40.5753 78.3348 40.3947 78.2105 40.1947 78.1269C39.9946 78.0433 39.7795 78.0022 39.5629 78.0062C39.3241 77.9667 39.0796 77.9798 38.8464 78.0446C38.6131 78.1095 38.3967 78.2245 38.2121 78.3817C38.0276 78.5389 37.8793 78.7346 37.7777 78.9551C37.676 79.1756 37.6233 79.4157 37.6233 79.6587C37.6233 79.9017 37.676 80.1418 37.7777 80.3623C37.8793 80.5828 38.0276 80.7785 38.2121 80.9357C38.3967 81.093 38.6131 81.208 38.8464 81.2728C39.0796 81.3377 39.3241 81.3508 39.5629 81.3112C39.7795 81.3152 39.9946 81.2742 40.1947 81.1906C40.3947 81.107 40.5753 80.9827 40.725 80.8255C40.9556 80.6094 41.113 80.3264 41.1754 80.016V80.016Z" fill="#AE7A2B"/>
<path d="M45.0234 81.099C45.2821 81.2668 45.5898 81.3416 45.8963 81.3112C46.1137 81.3146 46.3295 81.2733 46.5303 81.1898C46.7312 81.1063 46.9128 80.9823 47.064 80.8255C47.103 80.7864 47.1864 80.6915 47.3087 80.5407L48.2651 80.8813C48.1105 81.1094 47.9396 81.3258 47.7535 81.5289C47.3942 81.8851 46.94 82.1297 46.4456 82.2333C45.9513 82.3369 45.4376 82.295 44.9663 82.1128C44.495 81.9306 44.0861 81.6157 43.7886 81.2059C43.4911 80.7962 43.3178 80.3089 43.2892 79.8027C43.2607 79.2964 43.3782 78.7927 43.6278 78.3518C43.8773 77.911 44.2483 77.5518 44.6961 77.3174C45.1439 77.0829 45.6496 76.9832 46.1524 77.0301C46.6553 77.077 47.134 77.2686 47.5311 77.5819C47.6093 77.6483 47.6835 77.7191 47.7535 77.7941C47.7869 77.822 47.8759 77.9225 48.0204 78.0844L47.5367 78.5701L45.0234 81.099ZM46.6192 78.129C46.3942 78.0217 46.144 77.9792 45.8963 78.0062C45.6799 78.0035 45.4652 78.0452 45.2654 78.1287C45.0655 78.2122 44.8848 78.3358 44.7342 78.4919C44.5777 78.6423 44.4539 78.8236 44.3706 79.0244C44.2874 79.2252 44.2464 79.4412 44.2505 79.6587C44.2257 79.9096 44.2699 80.1626 44.3783 80.39L46.6192 78.129Z" fill="#AE7A2B"/>
<path d="M53.1081 80.5407L54.059 80.8813C53.9057 81.1089 53.7367 81.3253 53.553 81.5289C53.1848 81.9 52.7152 82.1531 52.2036 82.256C51.6921 82.359 51.1616 82.3072 50.6794 82.1072C50.1972 81.9073 49.7849 81.5681 49.4948 81.1327C49.2048 80.6973 49.0499 80.1853 49.0499 79.6615C49.0499 79.1376 49.2048 78.6256 49.4948 78.1902C49.7849 77.7548 50.1972 77.4157 50.6794 77.2157C51.1616 77.0157 51.6921 76.9639 52.2036 77.0669C52.7152 77.1698 53.1848 77.4229 53.553 77.794C53.736 77.9942 53.9051 78.2069 54.059 78.4305L53.1081 78.7822L52.8579 78.4863C52.7058 78.333 52.5245 78.212 52.3249 78.1305C52.1252 78.0489 51.9113 78.0086 51.6958 78.0118C51.3057 78.0764 50.9511 78.278 50.6953 78.5806C50.4396 78.8833 50.2991 79.2673 50.2991 79.6642C50.2991 80.0612 50.4396 80.4452 50.6953 80.7479C50.9511 81.0505 51.3057 81.2521 51.6958 81.3167C51.913 81.3192 52.1285 81.2775 52.3292 81.194C52.5299 81.1105 52.7116 80.987 52.8635 80.831C52.9024 80.8031 52.9802 80.6915 53.1081 80.5407Z" fill="#AE7A2B"/>
<path d="M57.5176 77.0181C58.2142 77.0195 58.8817 77.2984 59.3737 77.7935C59.8658 78.2885 60.1421 78.9593 60.1421 79.6587C60.141 80.1796 59.9861 80.6885 59.6971 81.1211C59.408 81.5537 58.9978 81.8906 58.5181 82.0892C58.0384 82.2878 57.5109 82.3391 57.0022 82.2368C56.4934 82.1345 56.0263 81.8831 55.6598 81.5144C55.2933 81.1457 55.0439 80.6761 54.9431 80.1651C54.8423 79.6541 54.8946 79.1246 55.0934 78.6434C55.2922 78.1623 55.6286 77.7511 56.0601 77.4618C56.4915 77.1725 56.9987 77.0181 57.5176 77.0181V77.0181ZM56.3499 78.4919C56.1962 78.6442 56.0747 78.8259 55.9925 79.0264C55.9103 79.2269 55.8693 79.4419 55.8717 79.6587C55.8813 79.9816 55.9837 80.2947 56.1666 80.5605C56.3494 80.8263 56.6049 81.0333 56.9023 81.1566C57.1996 81.2799 57.5261 81.3143 57.8425 81.2555C58.1588 81.1968 58.4515 81.0474 58.6853 80.8255C58.8411 80.6748 58.964 80.4933 59.0464 80.2925C59.1287 80.0916 59.1685 79.8758 59.1635 79.6587C59.1539 79.3358 59.0515 79.0226 58.8686 78.7569C58.6858 78.4911 58.4303 78.2841 58.1329 78.1608C57.8356 78.0375 57.509 78.0031 57.1927 78.0619C56.8763 78.1206 56.5836 78.27 56.3499 78.4919V78.4919Z" fill="#AE7A2B"/>
<path d="M62.205 78.0508C62.351 77.83 62.546 77.646 62.7746 77.5134C63.0032 77.3807 63.2593 77.3029 63.5228 77.286V78.2853C63.214 78.2859 62.9173 78.4058 62.6943 78.6203C62.3909 78.9131 62.2151 79.3144 62.205 79.7368V82.1877H61.2542V77.42H62.205V78.0508Z" fill="#AE7A2B"/>
<path d="M70.6457 75.6448C70.7089 75.7062 70.7588 75.78 70.7923 75.8616C70.8258 75.9433 70.8421 76.031 70.8403 76.1193C70.8419 76.2082 70.8255 76.2964 70.7921 76.3788C70.7588 76.4611 70.7092 76.5358 70.6463 76.5984C70.5835 76.661 70.5087 76.7102 70.4264 76.7429C70.3441 76.7757 70.256 76.7915 70.1675 76.7892C70.0801 76.7908 69.9933 76.7748 69.9122 76.7422C69.831 76.7096 69.7571 76.6611 69.6949 76.5994C69.6321 76.5365 69.5825 76.4617 69.5491 76.3792C69.5156 76.2967 69.499 76.2083 69.5003 76.1193C69.5003 75.9416 69.5706 75.7712 69.6957 75.6456C69.8209 75.5199 69.9906 75.4494 70.1675 75.4494C70.2563 75.4475 70.3445 75.4638 70.4268 75.4974C70.509 75.531 70.5835 75.5812 70.6457 75.6448V75.6448ZM70.6457 77.4089V82.1765H69.6949V77.4089H70.6457Z" fill="#AE7A2B"/>
<path d="M73.4481 78.6873V82.1764H72.4861V77.4089H73.4481V77.9671C73.5267 77.7133 73.689 77.4937 73.9082 77.3446C74.1275 77.1955 74.3907 77.1256 74.6547 77.1465C74.8878 77.1377 75.1197 77.1836 75.332 77.2805C75.5444 77.3774 75.7313 77.5227 75.878 77.7048C76.1922 78.0939 76.3578 78.5829 76.3451 79.0837V82.182H75.3942V79.1283C75.3959 78.9965 75.37 78.8658 75.3183 78.7447C75.2666 78.6235 75.1902 78.5146 75.094 78.4249C74.9022 78.239 74.646 78.1351 74.3795 78.1351C74.1129 78.1351 73.8567 78.239 73.6649 78.4249C73.5797 78.5007 73.5066 78.5892 73.4481 78.6873Z" fill="#AE7A2B"/>
<path d="M78.7027 77.4089V75.6168H79.6591V77.4089H80.5098V78.3691H79.6591V82.1765H78.7027V78.3691H77.8297V77.4089H78.7027Z" fill="#AE7A2B"/>
<path d="M83.4791 81.099C83.7378 81.2668 84.0456 81.3416 84.3521 81.3112C84.5694 81.3146 84.7852 81.2733 84.986 81.1898C85.1869 81.1062 85.3685 80.9823 85.5197 80.8255C85.5587 80.7864 85.6421 80.6915 85.7644 80.5407L86.7208 80.8813C86.5644 81.108 86.3935 81.3243 86.2092 81.5289C85.9031 81.8353 85.5263 82.0612 85.1125 82.1866C84.6986 82.3121 84.2603 82.3331 83.8364 82.2479C83.4125 82.1628 83.016 81.974 82.6821 81.6983C82.3481 81.4226 82.0871 81.0686 81.9219 80.6674C81.7567 80.2663 81.6926 79.8305 81.7352 79.3985C81.7778 78.9666 81.9258 78.5519 82.1661 78.191C82.4064 77.8302 82.7315 77.5344 83.1128 77.3298C83.4941 77.1252 83.9197 77.0181 84.3521 77.0181C84.9448 77.0092 85.5224 77.2065 85.9868 77.5763C86.0591 77.6433 86.137 77.7103 86.2092 77.7885C86.2815 77.8666 86.3316 77.9169 86.4761 78.0788L85.9924 78.5645L83.4791 81.099ZM85.0749 78.129C84.8499 78.0217 84.5997 77.9792 84.3521 78.0062C83.9097 78.0062 83.4854 78.1827 83.1725 78.4967C82.8597 78.8108 82.6839 79.2368 82.6839 79.681C82.6592 79.9319 82.7034 80.1849 82.8118 80.4123L85.0749 78.129Z" fill="#AE7A2B"/>
<path d="M89.1618 78.0508C89.3067 77.8301 89.5007 77.6461 89.7284 77.5134C89.9561 77.3807 90.2113 77.3029 90.4741 77.286V78.2853C90.1655 78.287 89.8692 78.4068 89.6456 78.6203C89.4952 78.7648 89.3749 78.938 89.2919 79.1297C89.2088 79.3214 89.1646 79.5278 89.1618 79.7368V82.1877H88.2054V77.42H89.1618V78.0508Z" fill="#AE7A2B"/>
<path d="M92.904 75.6448C92.9672 75.7062 93.0171 75.78 93.0506 75.8616C93.0841 75.9433 93.1004 76.031 93.0986 76.1193C93.1002 76.2082 93.0838 76.2964 93.0504 76.3788C93.0171 76.4611 92.9675 76.5358 92.9046 76.5984C92.8418 76.661 92.7669 76.7102 92.6847 76.7429C92.6024 76.7757 92.5143 76.7915 92.4258 76.7892C92.338 76.7899 92.2509 76.7731 92.1696 76.7397C92.0883 76.7063 92.0145 76.657 91.9524 76.5946C91.8902 76.5323 91.8411 76.4582 91.8079 76.3765C91.7746 76.2949 91.7578 76.2075 91.7586 76.1193C91.76 75.9421 91.8308 75.7725 91.9556 75.6472C92.0804 75.5219 92.2493 75.4508 92.4258 75.4494C92.5146 75.4475 92.6028 75.4638 92.6851 75.4974C92.7673 75.531 92.8418 75.5812 92.904 75.6448V75.6448ZM92.904 77.4089V82.1765H91.9532V77.4089H92.904Z" fill="#AE7A2B"/>
<path d="M97.0965 77.0181C97.7931 77.0195 98.4607 77.2984 98.9527 77.7935C99.4447 78.2885 99.721 78.9593 99.721 79.6587C99.7199 80.1796 99.5651 80.6885 99.276 81.1211C98.987 81.5537 98.5767 81.8906 98.097 82.0892C97.6174 82.2878 97.0899 82.3391 96.5811 82.2368C96.0724 82.1345 95.6053 81.8831 95.2388 81.5144C94.8723 81.1457 94.6229 80.6761 94.5221 80.1651C94.4213 79.6541 94.4735 79.1246 94.6724 78.6434C94.8712 78.1623 95.2075 77.7511 95.639 77.4618C96.0705 77.1725 96.5777 77.0181 97.0965 77.0181V77.0181ZM95.9289 78.4919C95.7752 78.6442 95.6536 78.8259 95.5715 79.0264C95.4893 79.2269 95.4482 79.4419 95.4507 79.6587C95.4603 79.9816 95.5627 80.2947 95.7455 80.5605C95.9284 80.8263 96.1839 81.0333 96.4812 81.1566C96.7786 81.2799 97.1051 81.3143 97.4214 81.2555C97.7378 81.1968 98.0305 81.0474 98.2642 80.8255C98.42 80.6748 98.543 80.4933 98.6253 80.2925C98.7076 80.0916 98.7475 79.8758 98.7424 79.6587C98.7328 79.3358 98.6304 79.0226 98.4476 78.7569C98.2647 78.4911 98.0092 78.2841 97.7119 78.1608C97.4145 78.0375 97.088 78.0031 96.7716 78.0619C96.4553 78.1206 96.1626 78.27 95.9289 78.4919V78.4919Z" fill="#AE7A2B"/>
<path d="M102.162 78.0508C102.308 77.83 102.503 77.646 102.732 77.5134C102.96 77.3807 103.216 77.3029 103.48 77.286V78.2853C103.171 78.2859 102.874 78.4058 102.651 78.6203C102.348 78.9131 102.172 79.3144 102.162 79.7368V82.1877H101.211V77.42H102.162V78.0508Z" fill="#AE7A2B"/>
<path d="M106.243 81.099C106.502 81.2668 106.81 81.3416 107.116 81.3112C107.334 81.3146 107.549 81.2733 107.75 81.1898C107.951 81.1062 108.133 80.9823 108.284 80.8255C108.323 80.7864 108.406 80.6915 108.529 80.5407L109.485 80.8813C109.332 81.1089 109.163 81.3253 108.979 81.5289C108.62 81.8876 108.165 82.1345 107.67 82.24C107.174 82.3454 106.659 82.305 106.185 82.1234C105.712 81.9418 105.301 81.6268 105.002 81.2164C104.703 80.8059 104.528 80.3174 104.499 79.8096C104.469 79.3018 104.587 78.7963 104.837 78.3539C105.087 77.9115 105.458 77.5509 105.908 77.3157C106.357 77.0804 106.864 76.9803 107.369 77.0276C107.873 77.0748 108.353 77.2673 108.751 77.5819C108.829 77.6489 108.901 77.7159 108.979 77.7941L109.24 78.0844L108.762 78.5701L106.243 81.099ZM107.839 78.129C107.614 78.0211 107.364 77.9786 107.116 78.0062C106.679 78.0135 106.262 78.1932 105.955 78.5065C105.648 78.8198 105.476 79.2416 105.476 79.681C105.45 79.9314 105.492 80.1842 105.598 80.4123L107.839 78.129Z" fill="#AE7A2B"/>
<path d="M111.932 81.1549C111.985 81.208 112.048 81.2497 112.118 81.2775C112.188 81.3053 112.263 81.3187 112.338 81.3168C112.485 81.3168 112.627 81.2579 112.731 81.1532C112.835 81.0485 112.894 80.9065 112.894 80.7585C112.894 80.6837 112.88 80.6095 112.851 80.5405C112.822 80.4714 112.78 80.4089 112.727 80.3565C112.574 80.2216 112.408 80.1019 112.232 79.9992C111.966 79.8648 111.72 79.6959 111.498 79.4968C111.256 79.2539 111.12 78.9246 111.12 78.5812C111.12 78.2379 111.256 77.9085 111.498 77.6657C111.616 77.5421 111.757 77.4441 111.914 77.3778C112.071 77.3115 112.24 77.2784 112.41 77.2805C112.576 77.2762 112.741 77.3061 112.895 77.3686C113.049 77.431 113.189 77.5245 113.305 77.6433C113.465 77.7935 113.577 77.9877 113.628 78.2016L112.699 78.4696C112.688 78.4151 112.665 78.3637 112.632 78.3188C112.603 78.2904 112.568 78.2684 112.53 78.254C112.491 78.2396 112.451 78.2331 112.41 78.2351C112.322 78.2379 112.239 78.2741 112.177 78.3363C112.115 78.3985 112.079 78.4821 112.076 78.5701C112.075 78.6594 112.109 78.7457 112.171 78.8101C112.297 78.9132 112.431 79.0065 112.571 79.0893C112.87 79.2389 113.149 79.4265 113.4 79.6475C113.542 79.7897 113.656 79.9589 113.733 80.1452C113.81 80.3316 113.85 80.5315 113.85 80.7334C113.85 80.9352 113.81 81.1351 113.733 81.3215C113.656 81.5078 113.542 81.677 113.4 81.8192C113.259 81.9623 113.091 82.076 112.905 82.1535C112.72 82.231 112.522 82.271 112.321 82.271C112.12 82.271 111.922 82.231 111.737 82.1535C111.551 82.076 111.383 81.9623 111.242 81.8192C111.033 81.607 110.891 81.3367 110.836 81.0432L111.787 80.8422C111.801 80.9591 111.852 81.0686 111.932 81.1549V81.1549Z" fill="#AE7A2B"/>
<path d="M34.1917 74.2714V84.0969" stroke="#AE7A2B" stroke-miterlimit="10"/>
<path d="M66.3197 74.2714V84.0969" stroke="#AE7A2B" stroke-miterlimit="10"/>
</svg>
